<svg width="111" height="23" viewBox="0 0 111 23" fill="none" xmlns="http://www.w3.org/2000/svg">
<path d="M5.96426 0.188721C5.96368 0.188721 5.96302 0.188721 5.96244 0.188721C5.75722 0.188721 5.56421 0.269735 5.41846 0.416966C5.27111 0.565825 5.18994 0.764033 5.18994 0.975039V12.7658C5.18994 13.1981 5.53864 13.5507 5.96733 13.5518C7.04054 13.5544 8.54417 13.69 10.026 14.2633C11.0395 14.6554 12.0429 15.2523 12.8913 16.1514V3.81209C12.8913 3.66553 12.8543 3.52784 12.7846 3.4139C11.0702 0.617837 7.77562 0.193012 5.96426 0.188721Z" fill="white"/>
<path d="M19.3211 13.6635C19.9361 13.581 20.5052 13.553 20.9874 13.5518C21.416 13.5507 21.7647 13.1981 21.7647 12.7658V0.975039C21.7647 0.764033 21.6835 0.565825 21.5362 0.416966C21.3904 0.269735 21.1973 0.188721 20.9923 0.188721C20.9916 0.188721 20.991 0.188721 20.9904 0.188721C19.1791 0.193086 15.8845 0.617911 14.17 3.41397C14.1002 3.52791 14.0633 3.6656 14.0633 3.81216V15.2219C13.669 18.3258 11.5229 20.5767 8.21605 20.5767C4.57485 20.5767 2.36523 17.737 2.36523 14.0998V0.794935C2.36523 0.475875 2.11626 0.188721 1.77392 0.188721H0.591307C0.280093 0.188721 0 0.475875 0 0.794935V14.2912C0 19.1409 3.32999 22.842 8.21605 22.842C12.7083 22.842 15.9018 19.7529 16.4202 15.5211C16.4318 15.4266 16.5199 15.0831 16.5319 15.0278C16.5438 14.9725 16.5841 14.6702 17.0119 14.3523C17.2027 14.2105 17.4221 14.102 17.6508 14.0172C18.0529 13.8977 18.4511 13.8069 18.8364 13.7388C19.023 13.7103 19.1895 13.6877 19.3211 13.6635Z" fill="white"/>
<path fill-rule="evenodd" clip-rule="evenodd" d="M60.0303 13.0465V0.547537C60.0303 0.358731 60.1776 0.188806 60.3802 0.188806H64.5975C66.7891 0.188806 68.4833 1.69925 68.4833 3.68172C68.4833 5.13552 67.3231 6.26836 66.4576 6.68373C67.4336 7.0047 68.8517 8.02425 68.8517 9.76127C68.8517 11.8759 67.0837 13.4052 64.8369 13.4052H60.3802C60.1776 13.4052 60.0303 13.2353 60.0303 13.0465ZM62.406 5.7397H64.3765C65.3157 5.7397 65.9603 4.98448 65.9603 4.04045C65.9603 3.09642 65.3157 2.4356 64.3765 2.4356H62.406V5.7397ZM62.406 11.1773H64.6343C65.5552 11.1773 66.2918 10.441 66.2918 9.45918C66.2918 8.51515 65.371 7.81657 64.4133 7.81657H62.406V11.1773ZM70.4723 6.8159C70.4723 3.03978 73.4005 0 77.0838 0C80.767 0 83.7136 3.03978 83.7136 6.8159C83.7136 10.592 80.767 13.594 77.0838 13.594C73.4005 13.594 70.4723 10.592 70.4723 6.8159ZM72.8664 6.8159C72.8664 9.19485 74.7633 11.1396 77.0838 11.1396C79.4042 11.1396 81.3195 9.19485 81.3195 6.8159C81.3195 4.43694 79.4042 2.45448 77.0838 2.45448C74.7633 2.45448 72.8664 4.43694 72.8664 6.8159ZM85.2053 6.8159C85.2053 3.03978 88.1335 0 91.8168 0C95.5 0 98.4467 3.03978 98.4467 6.8159C98.4467 10.592 95.5 13.594 91.8168 13.594C88.1335 13.594 85.2053 10.592 85.2053 6.8159ZM87.5995 6.8159C87.5995 9.19485 89.4963 11.1396 91.8168 11.1396C94.1372 11.1396 96.0525 9.19485 96.0525 6.8159C96.0525 4.43694 94.1372 2.45448 91.8168 2.45448C89.4963 2.45448 87.5995 4.43694 87.5995 6.8159ZM100.859 12.9521C100.859 13.1975 101.043 13.4052 101.301 13.4052H102.922C103.161 13.4052 103.364 13.1975 103.364 12.9521V7.19351L108.17 13.2731C108.207 13.3297 108.318 13.4052 108.502 13.4052H110.509C110.878 13.4052 111.025 12.9899 110.841 12.7444L105.684 6.4194L110.491 0.868508C110.73 0.585299 110.546 0.188806 110.196 0.188806H108.355C108.189 0.188806 108.078 0.283209 108.005 0.377612L103.364 5.7397V0.64194C103.364 0.396493 103.161 0.188806 102.922 0.188806H101.301C101.043 0.188806 100.859 0.396493 100.859 0.64194V12.9521Z" fill="white"/>
<path fill-rule="evenodd" clip-rule="evenodd" d="M26.605 8.40187C26.605 11.2717 28.8334 13.594 31.7247 13.594C34.6345 13.594 36.8629 11.2717 36.8629 8.40187V0.547537C36.8629 0.358731 36.6971 0.188806 36.5129 0.188806H34.7634C34.5608 0.188806 34.4135 0.358731 34.4135 0.547537V8.28858C34.4135 9.87455 33.3269 11.1396 31.7247 11.1396C30.1225 11.1396 29.0543 9.87455 29.0543 8.2697V0.547537C29.0543 0.358731 28.907 0.188806 28.7044 0.188806H26.9549C26.7707 0.188806 26.605 0.358731 26.605 0.547537V8.40187ZM40.0305 13.0465C40.0305 13.2353 40.1962 13.4052 40.3804 13.4052H42.0562C42.2588 13.4052 42.4062 13.2353 42.4062 13.0465V4.92784H42.4246L50.1226 13.594H50.5646C50.7487 13.594 50.9145 13.443 50.9145 13.2542V0.547537C50.9145 0.358731 50.7487 0.188806 50.5646 0.188806H48.8703C48.6677 0.188806 48.5204 0.358731 48.5204 0.547537V8.34522H48.5019L40.8408 0H40.3804C40.1962 0 40.0305 0.151045 40.0305 0.339851V13.0465ZM54.2662 13.0465C54.2662 13.2353 54.432 13.4052 54.6162 13.4052H56.3289C56.513 13.4052 56.6788 13.2353 56.6788 13.0465V0.547537C56.6788 0.358731 56.513 0.188806 56.3289 0.188806H54.6162C54.432 0.188806 54.2662 0.358731 54.2662 0.547537V13.0465Z" fill="white"/>
<path fill-rule="evenodd" clip-rule="evenodd" d="M26.5503 18.2861C26.5503 17.0503 27.5086 16.0554 28.714 16.0554C29.9195 16.0554 30.8838 17.0503 30.8838 18.2861C30.8838 19.5219 29.9195 20.5044 28.714 20.5044C27.5086 20.5044 26.5503 19.5219 26.5503 18.2861ZM27.3338 18.2861C27.3338 19.0646 27.9546 19.7011 28.714 19.7011C29.4735 19.7011 30.1003 19.0646 30.1003 18.2861C30.1003 17.5075 29.4735 16.8587 28.714 16.8587C27.9546 16.8587 27.3338 17.5075 27.3338 18.2861ZM31.413 20.3252C31.413 20.387 31.4672 20.4426 31.5275 20.4426H32.076C32.1423 20.4426 32.1905 20.387 32.1905 20.3252V17.6682H32.2026L34.6737 20.4611C34.7038 20.492 34.734 20.5044 34.7761 20.5044H34.8605C34.9208 20.5044 34.975 20.4549 34.975 20.3932V16.2346C34.975 16.1728 34.9208 16.1172 34.8605 16.1172H34.306C34.2397 16.1172 34.1915 16.1728 34.1915 16.2346V18.7866H34.1795L31.7204 16.0987C31.6902 16.0678 31.6601 16.0554 31.6179 16.0554H31.5275C31.4672 16.0554 31.413 16.1049 31.413 16.1666V20.3252ZM35.7513 20.3252C35.7513 20.387 35.7996 20.4426 35.8659 20.4426H38.0718C38.1381 20.4426 38.1863 20.387 38.1863 20.3252V19.8185C38.1863 19.7567 38.1381 19.7011 38.0718 19.7011H36.5349V16.2346C36.5349 16.1728 36.4806 16.1172 36.4204 16.1172H35.8659C35.7996 16.1172 35.7513 16.1728 35.7513 16.2346V20.3252ZM38.5467 20.3252C38.5467 20.387 38.601 20.4426 38.6612 20.4426H39.2218C39.282 20.4426 39.3363 20.387 39.3363 20.3252V16.2346C39.3363 16.1728 39.282 16.1172 39.2218 16.1172H38.6612C38.601 16.1172 38.5467 16.1728 38.5467 16.2346V20.3252ZM40.1126 20.3252C40.1126 20.387 40.1668 20.4426 40.2271 20.4426H40.7756C40.8419 20.4426 40.8901 20.387 40.8901 20.3252V17.6682H40.9021L43.3733 20.4611C43.4034 20.492 43.4335 20.5044 43.4757 20.5044H43.5601C43.6204 20.5044 43.6746 20.4549 43.6746 20.3932V16.2346C43.6746 16.1728 43.6204 16.1172 43.5601 16.1172H43.0056C42.9393 16.1172 42.8911 16.1728 42.8911 16.2346V18.7866H42.879L40.42 16.0987C40.3898 16.0678 40.3597 16.0554 40.3175 16.0554H40.2271C40.1668 16.0554 40.1126 16.1049 40.1126 16.1666V20.3252ZM44.4509 20.3252C44.4509 20.387 44.4991 20.4426 44.5654 20.4426H47.0185C47.0848 20.4426 47.133 20.387 47.133 20.3252V19.8185C47.133 19.7567 47.0848 19.7011 47.0185 19.7011H45.2345V18.6197H46.7232C46.7834 18.6197 46.8377 18.5703 46.8377 18.5023V17.9895C46.8377 17.9277 46.7834 17.8721 46.7232 17.8721H45.2345V16.8587H47.0185C47.0848 16.8587 47.133 16.8031 47.133 16.7413V16.2346C47.133 16.1728 47.0848 16.1172 47.0185 16.1172H44.5654C44.4991 16.1172 44.4509 16.1728 44.4509 16.2346V20.3252ZM48.8724 20.3252C48.8724 20.387 48.9207 20.4426 48.987 20.4426H51.44C51.5063 20.4426 51.5545 20.387 51.5545 20.3252V19.8185C51.5545 19.7567 51.5063 19.7011 51.44 19.7011H49.656V18.6197H51.1447C51.2049 18.6197 51.2592 18.5703 51.2592 18.5023V17.9895C51.2592 17.9277 51.2049 17.8721 51.1447 17.8721H49.656V16.8587H51.44C51.5063 16.8587 51.5545 16.8031 51.5545 16.7413V16.2346C51.5545 16.1728 51.5063 16.1172 51.44 16.1172H48.987C48.9207 16.1172 48.8724 16.1728 48.8724 16.2346V20.3252ZM52.0958 20.3252V16.2346C52.0958 16.1728 52.144 16.1172 52.2042 16.1172H53.6327C54.7959 16.1172 55.7482 17.0873 55.7482 18.2737C55.7482 19.4725 54.7959 20.4426 53.6327 20.4426H52.2042C52.144 20.4426 52.0958 20.387 52.0958 20.3252ZM52.8733 19.6887H53.5604C54.3439 19.6887 54.9165 19.1203 54.9165 18.2737C54.9165 17.4334 54.3439 16.8649 53.5604 16.8649H52.8733V19.6887ZM56.2352 18.8546C56.2352 19.7938 56.9645 20.5044 57.9108 20.5044C58.863 20.5044 59.5923 19.7938 59.5923 18.8546V16.2346C59.5923 16.1728 59.5381 16.1172 59.4778 16.1172H58.9052C58.8389 16.1172 58.7907 16.1728 58.7907 16.2346V18.8175C58.7907 19.3365 58.4351 19.7011 57.9108 19.7011C57.3864 19.7011 57.0368 19.3365 57.0368 18.8113V16.2346C57.0368 16.1728 56.9886 16.1172 56.9223 16.1172H56.3497C56.2895 16.1172 56.2352 16.1728 56.2352 16.2346V18.8546ZM60.0793 18.2861C60.0793 17.0503 61.0497 16.0554 62.2551 16.0554C62.8639 16.0554 63.3038 16.2532 63.7137 16.6301C63.7679 16.6795 63.7679 16.7537 63.7197 16.8031L63.3521 17.1924C63.3099 17.2418 63.2496 17.2418 63.2014 17.1924C62.9482 16.9637 62.6107 16.8278 62.2732 16.8278C61.5017 16.8278 60.9292 17.489 60.9292 18.2675C60.9292 19.0399 61.5078 19.6949 62.2792 19.6949C62.6409 19.6949 62.9482 19.5528 63.2014 19.3427C63.2496 19.2995 63.3159 19.3056 63.3521 19.3427L63.7257 19.7382C63.774 19.7814 63.7619 19.8617 63.7197 19.905C63.3099 20.3128 62.7915 20.5044 62.2551 20.5044C61.0497 20.5044 60.0793 19.5219 60.0793 18.2861ZM63.827 20.4426C63.7366 20.4426 63.6884 20.3623 63.7245 20.2819L65.599 16.1234C65.6171 16.0863 65.6472 16.0554 65.7014 16.0554H65.7617C65.822 16.0554 65.8461 16.0863 65.8642 16.1234L67.7205 20.2819C67.7567 20.3623 67.7085 20.4426 67.6181 20.4426H67.0937C67.0033 20.4426 66.9611 20.4055 66.9189 20.319L66.6236 19.6517H64.8215L64.5262 20.319C64.502 20.3808 64.4478 20.4426 64.3514 20.4426H63.827ZM65.1168 18.9658H66.3283L65.7256 17.6064H65.7075L65.1168 18.9658ZM68.4125 20.3252V16.8587H67.4903C67.424 16.8587 67.3758 16.8031 67.3758 16.7413V16.2346C67.3758 16.1728 67.424 16.1172 67.4903 16.1172H70.1242C70.1905 16.1172 70.2387 16.1728 70.2387 16.2346V16.7413C70.2387 16.8031 70.1905 16.8587 70.1242 16.8587H69.202V20.3252C69.202 20.387 69.1478 20.4426 69.0875 20.4426H68.527C68.4667 20.4426 68.4125 20.387 68.4125 20.3252ZM70.6594 20.3252C70.6594 20.387 70.7136 20.4426 70.7739 20.4426H71.3344C71.3947 20.4426 71.4489 20.387 71.4489 20.3252V16.2346C71.4489 16.1728 71.3947 16.1172 71.3344 16.1172H70.7739C70.7136 16.1172 70.6594 16.1728 70.6594 16.2346V20.3252ZM71.9781 18.2861C71.9781 17.0503 72.9364 16.0554 74.1419 16.0554C75.3473 16.0554 76.3116 17.0503 76.3116 18.2861C76.3116 19.5219 75.3473 20.5044 74.1419 20.5044C72.9364 20.5044 71.9781 19.5219 71.9781 18.2861ZM72.7617 18.2861C72.7617 19.0646 73.3824 19.7011 74.1419 19.7011C74.9013 19.7011 75.5281 19.0646 75.5281 18.2861C75.5281 17.5075 74.9013 16.8587 74.1419 16.8587C73.3824 16.8587 72.7617 17.5075 72.7617 18.2861ZM76.8408 20.3252C76.8408 20.387 76.8951 20.4426 76.9553 20.4426H77.5038C77.5701 20.4426 77.6183 20.387 77.6183 20.3252V17.6682H77.6304L80.1015 20.4611C80.1316 20.492 80.1618 20.5044 80.204 20.5044H80.2884C80.3486 20.5044 80.4029 20.4549 80.4029 20.3932V16.2346C80.4029 16.1728 80.3486 16.1172 80.2884 16.1172H79.7339C79.6676 16.1172 79.6193 16.1728 79.6193 16.2346V18.7866H79.6073L77.1482 16.0987C77.1181 16.0678 77.0879 16.0554 77.0458 16.0554H76.9553C76.8951 16.0554 76.8408 16.1049 76.8408 16.1666V20.3252ZM82.3774 20.3252V16.2346C82.3774 16.1728 82.4256 16.1172 82.4919 16.1172H83.9083C84.6496 16.1172 85.2583 16.7351 85.2583 17.4828C85.2583 18.249 84.6496 18.8731 83.9143 18.8731H83.1609V20.3252C83.1609 20.387 83.1066 20.4426 83.0464 20.4426H82.4919C82.4256 20.4426 82.3774 20.387 82.3774 20.3252ZM83.1609 18.1192H83.8842C84.2217 18.1192 84.4808 17.8412 84.4808 17.4766C84.4808 17.1368 84.2217 16.8772 83.8842 16.8772H83.1609V18.1192ZM85.679 20.3252V16.2346C85.679 16.1728 85.7273 16.1172 85.7936 16.1172H86.348C86.4083 16.1172 86.4626 16.1728 86.4626 16.2346V19.7011H87.9995C88.0658 19.7011 88.114 19.7567 88.114 19.8185V20.3252C88.114 20.387 88.0658 20.4426 87.9995 20.4426H85.7936C85.7273 20.4426 85.679 20.387 85.679 20.3252ZM88.0766 20.4426C87.9862 20.4426 87.938 20.3623 87.9742 20.2819L89.8486 16.1234C89.8667 16.0863 89.8968 16.0554 89.9511 16.0554H90.0114C90.0716 16.0554 90.0957 16.0863 90.1138 16.1234L91.9702 20.2819C92.0063 20.3623 91.9581 20.4426 91.8677 20.4426H91.3434C91.2529 20.4426 91.2108 20.4055 91.1686 20.319L90.8732 19.6517H89.0711L88.7758 20.319C88.7517 20.3808 88.6974 20.4426 88.601 20.4426H88.0766ZM89.3664 18.9658H90.5779L89.9752 17.6064H89.9571L89.3664 18.9658ZM92.6621 20.3252V16.8587H91.7399C91.6736 16.8587 91.6254 16.8031 91.6254 16.7413V16.2346C91.6254 16.1728 91.6736 16.1172 91.7399 16.1172H94.3738C94.4401 16.1172 94.4883 16.1728 94.4883 16.2346V16.7413C94.4883 16.8031 94.4401 16.8587 94.3738 16.8587H93.4517V20.3252C93.4517 20.387 93.3974 20.4426 93.3371 20.4426H92.7766C92.7163 20.4426 92.6621 20.387 92.6621 20.3252ZM94.909 20.3252C94.909 20.387 94.9572 20.4426 95.0235 20.4426H95.578C95.6383 20.4426 95.6925 20.387 95.6925 20.3252V18.7619H97.1813C97.2415 18.7619 97.2958 18.7063 97.2958 18.6445V18.1378C97.2958 18.076 97.2415 18.0204 97.1813 18.0204H95.6925V16.8587H97.4766C97.5429 16.8587 97.5911 16.8031 97.5911 16.7413V16.2346C97.5911 16.1728 97.5429 16.1172 97.4766 16.1172H95.0235C94.9572 16.1172 94.909 16.1728 94.909 16.2346V20.3252ZM97.7707 18.2861C97.7707 17.0503 98.729 16.0554 99.9344 16.0554C101.14 16.0554 102.104 17.0503 102.104 18.2861C102.104 19.5219 101.14 20.5044 99.9344 20.5044C98.729 20.5044 97.7707 19.5219 97.7707 18.2861ZM98.5542 18.2861C98.5542 19.0646 99.175 19.7011 99.9344 19.7011C100.694 19.7011 101.321 19.0646 101.321 18.2861C101.321 17.5075 100.694 16.8587 99.9344 16.8587C99.175 16.8587 98.5542 17.5075 98.5542 18.2861ZM102.633 20.3252V16.2346C102.633 16.1728 102.682 16.1172 102.748 16.1172H104.472C105.195 16.1172 105.786 16.7104 105.786 17.4457C105.786 18.0142 105.418 18.4776 104.894 18.6939L105.719 20.2634C105.761 20.3437 105.719 20.4426 105.617 20.4426H104.984C104.93 20.4426 104.9 20.4117 104.888 20.387L104.086 18.7495H103.417V20.3252C103.417 20.387 103.363 20.4426 103.302 20.4426H102.748C102.682 20.4426 102.633 20.387 102.633 20.3252ZM103.423 18.0883H104.405C104.725 18.0883 105.002 17.8041 105.002 17.4581C105.002 17.1306 104.725 16.8587 104.405 16.8587H103.423V18.0883ZM106.134 20.3005C106.122 20.387 106.17 20.4426 106.248 20.4426H106.791C106.845 20.4426 106.893 20.3932 106.899 20.3499L107.249 18.008H107.267L108.334 20.4364C108.352 20.4735 108.382 20.5044 108.436 20.5044H108.545C108.599 20.5044 108.635 20.4735 108.647 20.4364L109.702 18.008H109.72L110.076 20.3499C110.088 20.3932 110.136 20.4426 110.19 20.4426H110.739C110.817 20.4426 110.865 20.387 110.847 20.3005L110.136 16.1481C110.13 16.0987 110.094 16.0554 110.028 16.0554H109.931C109.877 16.0554 109.847 16.0801 109.829 16.1172L108.503 19.0337H108.485L107.159 16.1172C107.141 16.0801 107.104 16.0554 107.056 16.0554H106.96C106.893 16.0554 106.857 16.0987 106.851 16.1481L106.134 20.3005Z" fill="white"/>
</svg>
